<?xml version="1.0" standalone="no"?>
<!DOCTYPE svg PUBLIC "-//W3C//DTD SVG 1.1//EN" "http://www.w3.org/Graphics/SVG/1.1/DTD/svg11.dtd">

<svg viewBox="0 0 1020 120" style="" width="100%" height="100%" 
  xmlns="http://www.w3.org/2000/svg"
  xmlns:xlink="http://www.w3.org/1999/xlink">


<rect x="0" y="0" width="1020" height="120" fill="#eee" stroke-width="0"/>
<defs>
<clipPath id="minichart-1">
<rect width="1020" height="120"/>
</clipPath>
</defs>
<g clip-path="url(#minichart-1)">
<rect x="10.0" y="92.72266614695" width="9" height="17.277333853049996" style="fill:#66f; stroke-width:2; stroke:#eee"/>
<rect x="19.70873786407767" y="92.64470863379464" width="9" height="17.355291366205364" style="fill:#66f; stroke-width:2; stroke:#eee"/>
<rect x="29.41747572815534" y="102.17501461703375" width="9" height="7.824985382966247" style="fill:#66f; stroke-width:2; stroke:#eee"/>
<rect x="39.12621359223301" y="106.51140128629903" width="9" height="3.4885987137009664" style="fill:#66f; stroke-width:2; stroke:#eee"/>
<rect x="48.83495145631068" y="97.75092574546878" width="9" height="12.249074254531223" style="fill:#66f; stroke-width:2; stroke:#eee"/>
<rect x="58.54368932038834" y="96.13330734749572" width="9" height="13.866692652504284" style="fill:#66f; stroke-width:2; stroke:#eee"/>
<rect x="68.25242718446601" y="99.87526797895148" width="9" height="10.124732021048516" style="fill:#66f; stroke-width:2; stroke:#eee"/>
<rect x="77.96116504854369" y="94.17462482946793" width="9" height="15.82537517053207" style="fill:#66f; stroke-width:2; stroke:#eee"/>
<rect x="87.66990291262135" y="106.85246540635363" width="9" height="3.1475345936463697" style="fill:#66f; stroke-width:2; stroke:#eee"/>
<rect x="97.37864077669902" y="110.0" width="9" height="0.0" style="fill:#66f; stroke-width:2; stroke:#eee"/>
<rect x="107.08737864077668" y="97.74118105632438" width="9" height="12.258818943675621" style="fill:#66f; stroke-width:2; stroke:#eee"/>
<rect x="116.79611650485437" y="93.4242837653479" width="9" height="16.575716234652106" style="fill:#66f; stroke-width:2; stroke:#eee"/>
<rect x="126.50485436893203" y="85.3069577080492" width="9" height="24.693042291950803" style="fill:#66f; stroke-width:2; stroke:#eee"/>
<rect x="136.2135922330097" y="73.12609627752883" width="9" height="36.87390372247117" style="fill:#66f; stroke-width:2; stroke:#eee"/>
<rect x="145.92233009708738" y="75.63048138764375" width="9" height="34.369518612356245" style="fill:#66f; stroke-width:2; stroke:#eee"/>
<rect x="155.63106796116503" y="71.2258818943676" width="9" height="38.7741181056324" style="fill:#66f; stroke-width:2; stroke:#eee"/>
<rect x="165.3398058252427" y="83.3190411225882" width="9" height="26.680958877411797" style="fill:#66f; stroke-width:2; stroke:#eee"/>
<rect x="175.04854368932038" y="80.12278308321967" width="9" height="29.877216916780327" style="fill:#66f; stroke-width:2; stroke:#eee"/>
<rect x="184.75728155339803" y="81.50652894172676" width="9" height="28.493471058273244" style="fill:#66f; stroke-width:2; stroke:#eee"/>
<rect x="194.4660194174757" y="85.91112843500301" width="9" height="24.088871564996992" style="fill:#66f; stroke-width:2; stroke:#eee"/>
<rect x="204.17475728155335" y="88.75657766517253" width="9" height="21.24342233482747" style="fill:#66f; stroke-width:2; stroke:#eee"/>
<rect x="213.88349514563106" y="80.63925160787372" width="9" height="29.360748392126283" style="fill:#66f; stroke-width:2; stroke:#eee"/>
<rect x="223.59223300970874" y="77.61839797310476" width="9" height="32.38160202689524" style="fill:#66f; stroke-width:2; stroke:#eee"/>
<rect x="233.30097087378638" y="81.93529526408112" width="9" height="28.06470473591888" style="fill:#66f; stroke-width:2; stroke:#eee"/>
<rect x="243.00970873786406" y="101.62931202494649" width="9" height="8.370687975053514" style="fill:#66f; stroke-width:2; stroke:#eee"/>
<rect x="252.71844660194174" y="99.03722471253167" width="9" height="10.962775287468332" style="fill:#66f; stroke-width:2; stroke:#eee"/>
<rect x="262.4271844660194" y="86.33989475735727" width="9" height="23.66010524264273" style="fill:#66f; stroke-width:2; stroke:#eee"/>
<rect x="272.13592233009706" y="94.79828493471067" width="9" height="15.201715065289335" style="fill:#66f; stroke-width:2; stroke:#eee"/>
<rect x="281.84466019417476" y="90.22802572597938" width="9" height="19.77197427402062" style="fill:#66f; stroke-width:2; stroke:#eee"/>
<rect x="291.5533980582524" y="83.05593451568897" width="9" height="26.944065484311025" style="fill:#66f; stroke-width:2; stroke:#eee"/>
<rect x="301.26213592233006" y="80.55154940557404" width="9" height="29.448450594425964" style="fill:#66f; stroke-width:2; stroke:#eee"/>
<rect x="310.97087378640776" y="77.95946209315925" width="9" height="32.040537906840754" style="fill:#66f; stroke-width:2; stroke:#eee"/>
<rect x="320.6796116504854" y="77.70610017540442" width="9" height="32.293899824595584" style="fill:#66f; stroke-width:2; stroke:#eee"/>
<rect x="330.38834951456306" y="71.91775482362121" width="9" height="38.08224517637879" style="fill:#66f; stroke-width:2; stroke:#eee"/>
<rect x="340.09708737864077" y="74.08107581368154" width="9" height="35.91892418631846" style="fill:#66f; stroke-width:2; stroke:#eee"/>
<rect x="349.8058252427184" y="81.33112453712731" width="9" height="28.66887546287269" style="fill:#66f; stroke-width:2; stroke:#eee"/>
<rect x="359.51456310679606" y="80.12278308321967" width="9" height="29.877216916780327" style="fill:#66f; stroke-width:2; stroke:#eee"/>
<rect x="369.22330097087377" y="83.923211849542" width="9" height="26.076788150458" style="fill:#66f; stroke-width:2; stroke:#eee"/>
<rect x="378.9320388349514" y="83.572403040343" width="9" height="26.427596959656995" style="fill:#66f; stroke-width:2; stroke:#eee"/>
<rect x="388.64077669902906" y="90.40343013057883" width="9" height="19.596569869421174" style="fill:#66f; stroke-width:2; stroke:#eee"/>
<rect x="398.3495145631067" y="86.25219255505749" width="9" height="23.74780744494251" style="fill:#66f; stroke-width:2; stroke:#eee"/>
<rect x="408.05825242718447" y="84.09861625414156" width="9" height="25.90138374585844" style="fill:#66f; stroke-width:2; stroke:#eee"/>
<rect x="417.7669902912621" y="79.94737867862023" width="9" height="30.052621321379775" style="fill:#66f; stroke-width:2; stroke:#eee"/>
<rect x="427.47572815533977" y="80.3858896901189" width="9" height="29.6141103098811" style="fill:#66f; stroke-width:2; stroke:#eee"/>
<rect x="437.18446601941747" y="79.00214383161183" width="9" height="30.997856168388168" style="fill:#66f; stroke-width:2; stroke:#eee"/>
<rect x="446.8932038834951" y="80.81465601247328" width="9" height="29.18534398752672" style="fill:#66f; stroke-width:2; stroke:#eee"/>
<rect x="456.60194174757277" y="88.58117326057308" width="9" height="21.41882673942692" style="fill:#66f; stroke-width:2; stroke:#eee"/>
<rect x="466.31067961165047" y="83.49444552718776" width="9" height="26.505554472812236" style="fill:#66f; stroke-width:2; stroke:#eee"/>
<rect x="476.0194174757281" y="79.69401676086542" width="9" height="30.305983239134576" style="fill:#66f; stroke-width:2; stroke:#eee"/>
<rect x="485.72815533980577" y="77.18963165075039" width="9" height="32.810368349249615" style="fill:#66f; stroke-width:2; stroke:#eee"/>
<rect x="495.43689320388347" y="82.0229974663809" width="9" height="27.9770025336191" style="fill:#66f; stroke-width:2; stroke:#eee"/>
<rect x="505.1456310679611" y="79.08984603391161" width="9" height="30.910153966088387" style="fill:#66f; stroke-width:2; stroke:#eee"/>
<rect x="514.8543689320388" y="76.41005651919713" width="9" height="33.58994348080287" style="fill:#66f; stroke-width:2; stroke:#eee"/>
<rect x="524.5631067961165" y="75.37711946988894" width="9" height="34.62288053011106" style="fill:#66f; stroke-width:2; stroke:#eee"/>
<rect x="534.2718446601941" y="75.11401286298972" width="9" height="34.885987137010275" style="fill:#66f; stroke-width:2; stroke:#eee"/>
<rect x="543.9805825242719" y="74.42213993373612" width="9" height="35.57786006626388" style="fill:#66f; stroke-width:2; stroke:#eee"/>
<rect x="553.6893203883495" y="72.60962775287469" width="9" height="37.39037224712531" style="fill:#66f; stroke-width:2; stroke:#eee"/>
<rect x="563.3980582524272" y="73.30150068212828" width="9" height="36.69849931787172" style="fill:#66f; stroke-width:2; stroke:#eee"/>
<rect x="573.1067961165048" y="75.37711946988894" width="9" height="34.62288053011106" style="fill:#66f; stroke-width:2; stroke:#eee"/>
<rect x="582.8155339805825" y="73.38920288442804" width="9" height="36.610797115571955" style="fill:#66f; stroke-width:2; stroke:#eee"/>
<rect x="592.5242718446601" y="73.81796920678231" width="9" height="36.18203079321769" style="fill:#66f; stroke-width:2; stroke:#eee"/>
<rect x="602.2330097087378" y="75.71818358994352" width="9" height="34.28181641005648" style="fill:#66f; stroke-width:2; stroke:#eee"/>
<rect x="611.9417475728155" y="71.66439290586638" width="9" height="38.33560709413362" style="fill:#66f; stroke-width:2; stroke:#eee"/>
<rect x="621.6504854368932" y="66.21711167413764" width="9" height="43.78288832586236" style="fill:#66f; stroke-width:2; stroke:#eee"/>
<rect x="631.3592233009708" y="65.87604755408304" width="9" height="44.123952445916956" style="fill:#66f; stroke-width:2; stroke:#eee"/>
<rect x="641.0679611650485" y="67.0843890079907" width="9" height="42.915610992009306" style="fill:#66f; stroke-width:2; stroke:#eee"/>
<rect x="650.7766990291261" y="70.62171116741379" width="9" height="39.37828883258621" style="fill:#66f; stroke-width:2; stroke:#eee"/>
<rect x="660.4854368932038" y="66.13915416098227" width="9" height="43.86084583901773" style="fill:#66f; stroke-width:2; stroke:#eee"/>
<rect x="670.1941747572815" y="53.266419801208436" width="9" height="56.733580198791564" style="fill:#66f; stroke-width:2; stroke:#eee"/>
<rect x="679.9029126213592" y="55.770804911323346" width="9" height="54.229195088676654" style="fill:#66f; stroke-width:2; stroke:#eee"/>
<rect x="689.6116504854368" y="56.12161372052236" width="9" height="53.87838627947764" style="fill:#66f; stroke-width:2; stroke:#eee"/>
<rect x="699.3203883495145" y="49.81679984408498" width="9" height="60.18320015591502" style="fill:#66f; stroke-width:2; stroke:#eee"/>
<rect x="709.0291262135921" y="56.80374196063154" width="9" height="53.19625803936846" style="fill:#66f; stroke-width:2; stroke:#eee"/>
<rect x="718.7378640776698" y="57.934125901383794" width="9" height="52.065874098616206" style="fill:#66f; stroke-width:2; stroke:#eee"/>
<rect x="728.4466019417475" y="53.441824205807876" width="9" height="56.558175794192124" style="fill:#66f; stroke-width:2; stroke:#eee"/>
<rect x="738.1553398058252" y="54.13369713506147" width="9" height="55.86630286493853" style="fill:#66f; stroke-width:2; stroke:#eee"/>
<rect x="747.8640776699028" y="51.804716429545984" width="9" height="58.195283570454016" style="fill:#66f; stroke-width:2; stroke:#eee"/>
<rect x="757.5728155339805" y="46.357435197817246" width="9" height="63.642564802182754" style="fill:#66f; stroke-width:2; stroke:#eee"/>
<rect x="767.2815533980581" y="45.5876047554084" width="9" height="64.41239524459161" style="fill:#66f; stroke-width:2; stroke:#eee"/>
<rect x="776.9902912621358" y="35.13155330344969" width="9" height="74.86844669655031" style="fill:#66f; stroke-width:2; stroke:#eee"/>
<rect x="786.6990291262134" y="30.990060417072765" width="9" height="79.00993958292723" style="fill:#66f; stroke-width:2; stroke:#eee"/>
<rect x="796.4077669902913" y="26.06899239914248" width="9" height="83.93100760085753" style="fill:#66f; stroke-width:2; stroke:#eee"/>
<rect x="806.1165048543689" y="28.485675306957738" width="9" height="81.51432469304225" style="fill:#66f; stroke-width:2; stroke:#eee"/>
<rect x="815.8252427184466" y="27.452738257649656" width="9" height="82.54726174235034" style="fill:#66f; stroke-width:2; stroke:#eee"/>
<rect x="825.5339805825242" y="61.90021438316117" width="9" height="48.09978561683883" style="fill:#66f; stroke-width:2; stroke:#eee"/>
<rect x="835.2427184466019" y="59.308127070746465" width="9" height="50.691872929253535" style="fill:#66f; stroke-width:2; stroke:#eee"/>
<rect x="844.9514563106795" y="49.21262911713117" width="9" height="60.78737088286883" style="fill:#66f; stroke-width:2; stroke:#eee"/>
<rect x="854.6601941747573" y="49.81679984408498" width="9" height="60.18320015591502" style="fill:#66f; stroke-width:2; stroke:#eee"/>
<rect x="864.3689320388349" y="48.520756187877694" width="9" height="61.479243812122306" style="fill:#66f; stroke-width:2; stroke:#eee"/>
<rect x="874.0776699029126" y="49.81679984408498" width="9" height="60.18320015591502" style="fill:#66f; stroke-width:2; stroke:#eee"/>
<rect x="883.7864077669902" y="50.24556616643935" width="9" height="59.75443383356065" style="fill:#66f; stroke-width:2; stroke:#eee"/>
<rect x="893.4951456310679" y="44.20385889690121" width="9" height="65.79614110309879" style="fill:#66f; stroke-width:2; stroke:#eee"/>
<rect x="903.2038834951455" y="37.031767686610806" width="9" height="72.9682323133892" style="fill:#66f; stroke-width:2; stroke:#eee"/>
<rect x="912.9126213592232" y="46.357435197817246" width="9" height="63.642564802182754" style="fill:#66f; stroke-width:2; stroke:#eee"/>
<rect x="922.6213592233009" y="30.38588969011895" width="9" height="79.61411030988106" style="fill:#66f; stroke-width:2; stroke:#eee"/>
<rect x="932.3300970873786" y="19.09179497174044" width="9" height="90.90820502825956" style="fill:#66f; stroke-width:2; stroke:#eee"/>
<rect x="942.0388349514562" y="16.821282401091402" width="9" height="93.1787175989086" style="fill:#66f; stroke-width:2; stroke:#eee"/>
<rect x="951.7475728155339" y="12.445916975248485" width="9" height="97.55408302475152" style="fill:#66f; stroke-width:2; stroke:#eee"/>
<rect x="961.4563106796115" y="10.0" width="9" height="100.0" style="fill:#66f; stroke-width:2; stroke:#eee"/>
<rect x="971.1650485436892" y="12.533619177548264" width="9" height="97.46638082245174" style="fill:#66f; stroke-width:2; stroke:#eee"/>
<rect x="980.8737864077669" y="15.330344961995737" width="9" height="94.66965503800427" style="fill:#66f; stroke-width:2; stroke:#eee"/>
<rect x="990.5825242718446" y="12.533619177548264" width="9" height="97.46638082245174" style="fill:#66f; stroke-width:2; stroke:#eee"/>
<rect x="1000.2912621359222" y="19.17949717404022" width="9" height="90.82050282595978" style="fill:#66f; stroke-width:2; stroke:#eee"/>
</g>

</svg>