<?xml version="1.0" standalone="no"?>
<!DOCTYPE svg PUBLIC "-//W3C//DTD SVG 1.1//EN" "http://www.w3.org/Graphics/SVG/1.1/DTD/svg11.dtd">

<svg viewBox="0 0 1000 100" style="" width="100%" height="100%" 
  xmlns="http://www.w3.org/2000/svg"
  xmlns:xlink="http://www.w3.org/1999/xlink">


<rect x="0" y="0" width="1000" height="100" fill="#eee" stroke-width="0"/>
<defs>
<clipPath id="minichart-1">
<rect width="1000" height="100"/>
</clipPath>
</defs>
<g clip-path="url(#minichart-1)">
<rect x="0.0" y="82.72266614695" width="9" height="17.277333853049996" style="fill:#333; stroke-width:2; stroke:#eee"/>
<rect x="9.70873786407767" y="82.64470863379464" width="9" height="17.355291366205364" style="fill:#333; stroke-width:2; stroke:#eee"/>
<rect x="19.41747572815534" y="92.17501461703375" width="9" height="7.824985382966247" style="fill:#333; stroke-width:2; stroke:#eee"/>
<rect x="29.126213592233007" y="96.51140128629903" width="9" height="3.4885987137009664" style="fill:#333; stroke-width:2; stroke:#eee"/>
<rect x="38.83495145631068" y="87.75092574546878" width="9" height="12.249074254531223" style="fill:#333; stroke-width:2; stroke:#eee"/>
<rect x="48.54368932038834" y="86.13330734749572" width="9" height="13.866692652504284" style="fill:#333; stroke-width:2; stroke:#eee"/>
<rect x="58.252427184466015" y="89.87526797895148" width="9" height="10.124732021048516" style="fill:#333; stroke-width:2; stroke:#eee"/>
<rect x="67.96116504854369" y="84.17462482946793" width="9" height="15.82537517053207" style="fill:#333; stroke-width:2; stroke:#eee"/>
<rect x="77.66990291262135" y="96.85246540635363" width="9" height="3.1475345936463697" style="fill:#333; stroke-width:2; stroke:#eee"/>
<rect x="87.37864077669902" y="100.0" width="9" height="0.0" style="fill:#333; stroke-width:2; stroke:#eee"/>
<rect x="97.08737864077668" y="87.74118105632438" width="9" height="12.258818943675621" style="fill:#333; stroke-width:2; stroke:#eee"/>
<rect x="106.79611650485437" y="83.4242837653479" width="9" height="16.575716234652106" style="fill:#333; stroke-width:2; stroke:#eee"/>
<rect x="116.50485436893203" y="75.3069577080492" width="9" height="24.693042291950803" style="fill:#333; stroke-width:2; stroke:#eee"/>
<rect x="126.2135922330097" y="63.12609627752883" width="9" height="36.87390372247117" style="fill:#333; stroke-width:2; stroke:#eee"/>
<rect x="135.92233009708738" y="65.63048138764375" width="9" height="34.369518612356245" style="fill:#333; stroke-width:2; stroke:#eee"/>
<rect x="145.63106796116503" y="61.2258818943676" width="9" height="38.7741181056324" style="fill:#333; stroke-width:2; stroke:#eee"/>
<rect x="155.3398058252427" y="73.3190411225882" width="9" height="26.680958877411797" style="fill:#333; stroke-width:2; stroke:#eee"/>
<rect x="165.04854368932038" y="70.12278308321967" width="9" height="29.877216916780327" style="fill:#333; stroke-width:2; stroke:#eee"/>
<rect x="174.75728155339803" y="71.50652894172676" width="9" height="28.493471058273244" style="fill:#333; stroke-width:2; stroke:#eee"/>
<rect x="184.4660194174757" y="75.91112843500301" width="9" height="24.088871564996992" style="fill:#333; stroke-width:2; stroke:#eee"/>
<rect x="194.17475728155335" y="78.75657766517253" width="9" height="21.24342233482747" style="fill:#333; stroke-width:2; stroke:#eee"/>
<rect x="203.88349514563106" y="70.63925160787372" width="9" height="29.360748392126283" style="fill:#333; stroke-width:2; stroke:#eee"/>
<rect x="213.59223300970874" y="67.61839797310476" width="9" height="32.38160202689524" style="fill:#333; stroke-width:2; stroke:#eee"/>
<rect x="223.30097087378638" y="71.93529526408112" width="9" height="28.06470473591888" style="fill:#333; stroke-width:2; stroke:#eee"/>
<rect x="233.00970873786406" y="91.62931202494649" width="9" height="8.370687975053514" style="fill:#333; stroke-width:2; stroke:#eee"/>
<rect x="242.71844660194174" y="89.03722471253167" width="9" height="10.962775287468332" style="fill:#333; stroke-width:2; stroke:#eee"/>
<rect x="252.4271844660194" y="76.33989475735727" width="9" height="23.66010524264273" style="fill:#333; stroke-width:2; stroke:#eee"/>
<rect x="262.13592233009706" y="84.79828493471067" width="9" height="15.201715065289335" style="fill:#333; stroke-width:2; stroke:#eee"/>
<rect x="271.84466019417476" y="80.22802572597938" width="9" height="19.77197427402062" style="fill:#333; stroke-width:2; stroke:#eee"/>
<rect x="281.5533980582524" y="73.05593451568897" width="9" height="26.944065484311025" style="fill:#333; stroke-width:2; stroke:#eee"/>
<rect x="291.26213592233006" y="70.55154940557404" width="9" height="29.448450594425964" style="fill:#333; stroke-width:2; stroke:#eee"/>
<rect x="300.97087378640776" y="67.95946209315925" width="9" height="32.040537906840754" style="fill:#333; stroke-width:2; stroke:#eee"/>
<rect x="310.6796116504854" y="67.70610017540442" width="9" height="32.293899824595584" style="fill:#333; stroke-width:2; stroke:#eee"/>
<rect x="320.38834951456306" y="61.91775482362121" width="9" height="38.08224517637879" style="fill:#333; stroke-width:2; stroke:#eee"/>
<rect x="330.09708737864077" y="64.08107581368154" width="9" height="35.91892418631846" style="fill:#333; stroke-width:2; stroke:#eee"/>
<rect x="339.8058252427184" y="71.33112453712731" width="9" height="28.66887546287269" style="fill:#333; stroke-width:2; stroke:#eee"/>
<rect x="349.51456310679606" y="70.12278308321967" width="9" height="29.877216916780327" style="fill:#333; stroke-width:2; stroke:#eee"/>
<rect x="359.22330097087377" y="73.923211849542" width="9" height="26.076788150458" style="fill:#333; stroke-width:2; stroke:#eee"/>
<rect x="368.9320388349514" y="73.572403040343" width="9" height="26.427596959656995" style="fill:#333; stroke-width:2; stroke:#eee"/>
<rect x="378.64077669902906" y="80.40343013057883" width="9" height="19.596569869421174" style="fill:#333; stroke-width:2; stroke:#eee"/>
<rect x="388.3495145631067" y="76.25219255505749" width="9" height="23.74780744494251" style="fill:#333; stroke-width:2; stroke:#eee"/>
<rect x="398.05825242718447" y="74.09861625414156" width="9" height="25.90138374585844" style="fill:#333; stroke-width:2; stroke:#eee"/>
<rect x="407.7669902912621" y="69.94737867862023" width="9" height="30.052621321379775" style="fill:#333; stroke-width:2; stroke:#eee"/>
<rect x="417.47572815533977" y="70.3858896901189" width="9" height="29.6141103098811" style="fill:#333; stroke-width:2; stroke:#eee"/>
<rect x="427.18446601941747" y="69.00214383161183" width="9" height="30.997856168388168" style="fill:#333; stroke-width:2; stroke:#eee"/>
<rect x="436.8932038834951" y="70.81465601247328" width="9" height="29.18534398752672" style="fill:#333; stroke-width:2; stroke:#eee"/>
<rect x="446.60194174757277" y="78.58117326057308" width="9" height="21.41882673942692" style="fill:#333; stroke-width:2; stroke:#eee"/>
<rect x="456.31067961165047" y="73.49444552718776" width="9" height="26.505554472812236" style="fill:#333; stroke-width:2; stroke:#eee"/>
<rect x="466.0194174757281" y="69.69401676086542" width="9" height="30.305983239134576" style="fill:#333; stroke-width:2; stroke:#eee"/>
<rect x="475.72815533980577" y="67.18963165075039" width="9" height="32.810368349249615" style="fill:#333; stroke-width:2; stroke:#eee"/>
<rect x="485.43689320388347" y="72.0229974663809" width="9" height="27.9770025336191" style="fill:#333; stroke-width:2; stroke:#eee"/>
<rect x="495.1456310679611" y="69.08984603391161" width="9" height="30.910153966088387" style="fill:#333; stroke-width:2; stroke:#eee"/>
<rect x="504.8543689320388" y="66.41005651919713" width="9" height="33.58994348080287" style="fill:#333; stroke-width:2; stroke:#eee"/>
<rect x="514.5631067961165" y="65.37711946988894" width="9" height="34.62288053011106" style="fill:#333; stroke-width:2; stroke:#eee"/>
<rect x="524.2718446601941" y="65.11401286298972" width="9" height="34.885987137010275" style="fill:#333; stroke-width:2; stroke:#eee"/>
<rect x="533.9805825242719" y="64.42213993373612" width="9" height="35.57786006626388" style="fill:#333; stroke-width:2; stroke:#eee"/>
<rect x="543.6893203883495" y="62.60962775287469" width="9" height="37.39037224712531" style="fill:#333; stroke-width:2; stroke:#eee"/>
<rect x="553.3980582524272" y="63.30150068212828" width="9" height="36.69849931787172" style="fill:#333; stroke-width:2; stroke:#eee"/>
<rect x="563.1067961165048" y="65.37711946988894" width="9" height="34.62288053011106" style="fill:#333; stroke-width:2; stroke:#eee"/>
<rect x="572.8155339805825" y="63.38920288442805" width="9" height="36.61079711557195" style="fill:#333; stroke-width:2; stroke:#eee"/>
<rect x="582.5242718446601" y="63.81796920678231" width="9" height="36.18203079321769" style="fill:#333; stroke-width:2; stroke:#eee"/>
<rect x="592.2330097087378" y="65.71818358994352" width="9" height="34.28181641005648" style="fill:#333; stroke-width:2; stroke:#eee"/>
<rect x="601.9417475728155" y="61.664392905866386" width="9" height="38.335607094133614" style="fill:#333; stroke-width:2; stroke:#eee"/>
<rect x="611.6504854368932" y="56.21711167413764" width="9" height="43.78288832586236" style="fill:#333; stroke-width:2; stroke:#eee"/>
<rect x="621.3592233009708" y="55.87604755408305" width="9" height="44.12395244591695" style="fill:#333; stroke-width:2; stroke:#eee"/>
<rect x="631.0679611650485" y="57.08438900799069" width="9" height="42.91561099200931" style="fill:#333; stroke-width:2; stroke:#eee"/>
<rect x="640.7766990291261" y="60.62171116741379" width="9" height="39.37828883258621" style="fill:#333; stroke-width:2; stroke:#eee"/>
<rect x="650.4854368932038" y="56.13915416098227" width="9" height="43.86084583901773" style="fill:#333; stroke-width:2; stroke:#eee"/>
<rect x="660.1941747572815" y="43.266419801208436" width="9" height="56.733580198791564" style="fill:#333; stroke-width:2; stroke:#eee"/>
<rect x="669.9029126213592" y="45.770804911323346" width="9" height="54.229195088676654" style="fill:#333; stroke-width:2; stroke:#eee"/>
<rect x="679.6116504854368" y="46.12161372052236" width="9" height="53.87838627947764" style="fill:#333; stroke-width:2; stroke:#eee"/>
<rect x="689.3203883495145" y="39.81679984408498" width="9" height="60.18320015591502" style="fill:#333; stroke-width:2; stroke:#eee"/>
<rect x="699.0291262135921" y="46.80374196063154" width="9" height="53.19625803936846" style="fill:#333; stroke-width:2; stroke:#eee"/>
<rect x="708.7378640776698" y="47.934125901383794" width="9" height="52.065874098616206" style="fill:#333; stroke-width:2; stroke:#eee"/>
<rect x="718.4466019417475" y="43.441824205807876" width="9" height="56.558175794192124" style="fill:#333; stroke-width:2; stroke:#eee"/>
<rect x="728.1553398058252" y="44.13369713506147" width="9" height="55.86630286493853" style="fill:#333; stroke-width:2; stroke:#eee"/>
<rect x="737.8640776699028" y="41.804716429545984" width="9" height="58.195283570454016" style="fill:#333; stroke-width:2; stroke:#eee"/>
<rect x="747.5728155339805" y="36.357435197817246" width="9" height="63.642564802182754" style="fill:#333; stroke-width:2; stroke:#eee"/>
<rect x="757.2815533980581" y="35.5876047554084" width="9" height="64.41239524459161" style="fill:#333; stroke-width:2; stroke:#eee"/>
<rect x="766.9902912621358" y="25.131553303449692" width="9" height="74.86844669655031" style="fill:#333; stroke-width:2; stroke:#eee"/>
<rect x="776.6990291262134" y="20.990060417072765" width="9" height="79.00993958292723" style="fill:#333; stroke-width:2; stroke:#eee"/>
<rect x="786.4077669902913" y="16.06899239914248" width="9" height="83.93100760085753" style="fill:#333; stroke-width:2; stroke:#eee"/>
<rect x="796.1165048543689" y="18.485675306957738" width="9" height="81.51432469304225" style="fill:#333; stroke-width:2; stroke:#eee"/>
<rect x="805.8252427184466" y="17.452738257649656" width="9" height="82.54726174235034" style="fill:#333; stroke-width:2; stroke:#eee"/>
<rect x="815.5339805825242" y="51.90021438316117" width="9" height="48.09978561683883" style="fill:#333; stroke-width:2; stroke:#eee"/>
<rect x="825.2427184466019" y="49.308127070746465" width="9" height="50.691872929253535" style="fill:#333; stroke-width:2; stroke:#eee"/>
<rect x="834.9514563106795" y="39.21262911713117" width="9" height="60.78737088286883" style="fill:#333; stroke-width:2; stroke:#eee"/>
<rect x="844.6601941747573" y="39.81679984408498" width="9" height="60.18320015591502" style="fill:#333; stroke-width:2; stroke:#eee"/>
<rect x="854.3689320388349" y="38.520756187877694" width="9" height="61.479243812122306" style="fill:#333; stroke-width:2; stroke:#eee"/>
<rect x="864.0776699029126" y="39.81679984408498" width="9" height="60.18320015591502" style="fill:#333; stroke-width:2; stroke:#eee"/>
<rect x="873.7864077669902" y="40.24556616643935" width="9" height="59.75443383356065" style="fill:#333; stroke-width:2; stroke:#eee"/>
<rect x="883.4951456310679" y="34.20385889690121" width="9" height="65.79614110309879" style="fill:#333; stroke-width:2; stroke:#eee"/>
<rect x="893.2038834951455" y="27.03176768661081" width="9" height="72.9682323133892" style="fill:#333; stroke-width:2; stroke:#eee"/>
<rect x="902.9126213592232" y="36.357435197817246" width="9" height="63.642564802182754" style="fill:#333; stroke-width:2; stroke:#eee"/>
<rect x="912.6213592233009" y="20.38588969011895" width="9" height="79.61411030988106" style="fill:#333; stroke-width:2; stroke:#eee"/>
<rect x="922.3300970873786" y="9.091794971740441" width="9" height="90.90820502825956" style="fill:#333; stroke-width:2; stroke:#eee"/>
<rect x="932.0388349514562" y="6.8212824010914" width="9" height="93.1787175989086" style="fill:#333; stroke-width:2; stroke:#eee"/>
<rect x="941.7475728155339" y="2.4459169752484855" width="9" height="97.55408302475152" style="fill:#333; stroke-width:2; stroke:#eee"/>
<rect x="951.4563106796115" y="0.0" width="9" height="100.0" style="fill:#333; stroke-width:2; stroke:#eee"/>
<rect x="961.1650485436892" y="2.533619177548263" width="9" height="97.46638082245174" style="fill:#333; stroke-width:2; stroke:#eee"/>
<rect x="970.8737864077669" y="5.330344961995737" width="9" height="94.66965503800427" style="fill:#333; stroke-width:2; stroke:#eee"/>
<rect x="980.5825242718446" y="2.533619177548263" width="9" height="97.46638082245174" style="fill:#333; stroke-width:2; stroke:#eee"/>
<rect x="990.2912621359222" y="9.179497174040218" width="9" height="90.82050282595978" style="fill:#333; stroke-width:2; stroke:#eee"/>
</g>

</svg>