<?xml version="1.0" standalone="no"?>
<!DOCTYPE svg PUBLIC "-//W3C//DTD SVG 1.1//EN" "http://www.w3.org/Graphics/SVG/1.1/DTD/svg11.dtd">

<svg viewBox="0 0 980 120" width="100%" height="100%" 
  xmlns="http://www.w3.org/2000/svg"
  xmlns:xlink="http://www.w3.org/1999/xlink">


<g transform="translate(0 0)">
<rect x="0" y="0" width="320" height="80" fill="#ccd" stroke-width="0"/>
<defs>
<clipPath id="minichart-1">
<rect width="320" height="80"/>
</clipPath>
</defs>
<g clip-path="url(#minichart-1)">
<polyline fill="none" stroke="green" stroke-width="2" stroke-linejoin="round" stroke-linecap="round" points="10.0,70.0 25.789473684210527,68.70967741935485 41.578947368421055,67.09677419354838 57.368421052631575,69.03225806451613 73.15789473684211,59.03225806451613 88.94736842105263,59.354838709677416 104.73684210526315,67.74193548387098 120.52631578947368,48.064516129032256 136.31578947368422,67.41935483870968 152.10526315789474,38.38709677419355 167.89473684210526,52.25806451612903 183.6842105263158,53.54838709677419 199.4736842105263,32.25806451612903 215.26315789473682,36.12903225806451 231.05263157894737,53.87096774193549 246.8421052631579,51.612903225806456 262.63157894736844,46.12903225806452 278.4210526315789,10.0 294.2105263157895,16.451612903225808 310.0,54.193548387096776"/>
</g>
</g>
<g transform="translate(330 0)">
<rect x="0" y="0" width="320" height="80" fill="#ccd" stroke-width="0"/>
<defs>
<clipPath id="minichart-2">
<rect width="320" height="80"/>
</clipPath>
</defs>
<g clip-path="url(#minichart-2)">
<rect x="10.0" y="70.0" width="7" height="0.0" style="fill:blue; stroke-width:2; stroke:#ccd"/>
<rect x="17.5" y="69.34782608695652" width="7" height="0.6521739130434838" style="fill:blue; stroke-width:2; stroke:#ccd"/>
<rect x="25.0" y="68.53260869565217" width="7" height="1.467391304347828" style="fill:blue; stroke-width:2; stroke:#ccd"/>
<rect x="32.5" y="69.51086956521739" width="7" height="0.4891304347826093" style="fill:blue; stroke-width:2; stroke:#ccd"/>
<rect x="40.0" y="64.45652173913044" width="7" height="5.543478260869563" style="fill:blue; stroke-width:2; stroke:#ccd"/>
<rect x="47.5" y="64.61956521739131" width="7" height="5.380434782608688" style="fill:blue; stroke-width:2; stroke:#ccd"/>
<rect x="55.00000000000001" y="68.8586956521739" width="7" height="1.1413043478260931" style="fill:blue; stroke-width:2; stroke:#ccd"/>
<rect x="62.50000000000001" y="58.913043478260875" width="7" height="11.086956521739125" style="fill:blue; stroke-width:2; stroke:#ccd"/>
<rect x="70.0" y="68.69565217391305" width="7" height="1.3043478260869534" style="fill:blue; stroke-width:2; stroke:#ccd"/>
<rect x="77.5" y="54.02173913043478" width="7" height="15.978260869565219" style="fill:blue; stroke-width:2; stroke:#ccd"/>
<rect x="85.0" y="61.03260869565218" width="7" height="8.96739130434782" style="fill:blue; stroke-width:2; stroke:#ccd"/>
<rect x="92.5" y="61.68478260869565" width="7" height="8.315217391304351" style="fill:blue; stroke-width:2; stroke:#ccd"/>
<rect x="100.00000000000001" y="50.92391304347826" width="7" height="19.076086956521742" style="fill:blue; stroke-width:2; stroke:#ccd"/>
<rect x="107.5" y="52.880434782608695" width="7" height="17.119565217391305" style="fill:blue; stroke-width:2; stroke:#ccd"/>
<rect x="115.00000000000001" y="61.847826086956516" width="7" height="8.152173913043484" style="fill:blue; stroke-width:2; stroke:#ccd"/>
<rect x="122.5" y="60.70652173913044" width="7" height="9.293478260869563" style="fill:blue; stroke-width:2; stroke:#ccd"/>
<rect x="130.0" y="57.93478260869565" width="7" height="12.065217391304351" style="fill:blue; stroke-width:2; stroke:#ccd"/>
<rect x="137.5" y="39.67391304347826" width="7" height="30.326086956521742" style="fill:blue; stroke-width:2; stroke:#ccd"/>
<rect x="145.0" y="42.93478260869565" width="7" height="27.06521739130435" style="fill:blue; stroke-width:2; stroke:#ccd"/>
<rect x="152.5" y="62.01086956521739" width="7" height="7.989130434782609" style="fill:blue; stroke-width:2; stroke:#ccd"/>
<rect x="160.0" y="52.391304347826086" width="7" height="17.608695652173914" style="fill:blue; stroke-width:2; stroke:#ccd"/>
<rect x="167.5" y="47.98913043478261" width="7" height="22.01086956521739" style="fill:blue; stroke-width:2; stroke:#ccd"/>
<rect x="175.0" y="40.652173913043484" width="7" height="29.347826086956516" style="fill:blue; stroke-width:2; stroke:#ccd"/>
<rect x="182.50000000000003" y="40.815217391304344" width="7" height="29.184782608695656" style="fill:blue; stroke-width:2; stroke:#ccd"/>
<rect x="190.00000000000003" y="40.32608695652174" width="7" height="29.673913043478258" style="fill:blue; stroke-width:2; stroke:#ccd"/>
<rect x="197.5" y="26.14130434782609" width="7" height="43.85869565217391" style="fill:blue; stroke-width:2; stroke:#ccd"/>
<rect x="205.0" y="32.33695652173913" width="7" height="37.66304347826087" style="fill:blue; stroke-width:2; stroke:#ccd"/>
<rect x="212.5" y="31.35869565217391" width="7" height="38.64130434782609" style="fill:blue; stroke-width:2; stroke:#ccd"/>
<rect x="220.00000000000003" y="40.0" width="7" height="30.0" style="fill:blue; stroke-width:2; stroke:#ccd"/>
<rect x="227.50000000000003" y="30.543478260869563" width="7" height="39.45652173913044" style="fill:blue; stroke-width:2; stroke:#ccd"/>
<rect x="235.0" y="29.076086956521742" width="7" height="40.92391304347826" style="fill:blue; stroke-width:2; stroke:#ccd"/>
<rect x="242.5" y="42.44565217391305" width="7" height="27.554347826086953" style="fill:blue; stroke-width:2; stroke:#ccd"/>
<rect x="250.0" y="62.5" width="7" height="7.5" style="fill:blue; stroke-width:2; stroke:#ccd"/>
<rect x="257.5" y="12.934782608695652" width="7" height="57.065217391304344" style="fill:blue; stroke-width:2; stroke:#ccd"/>
<rect x="265.0" y="53.20652173913043" width="7" height="16.79347826086957" style="fill:blue; stroke-width:2; stroke:#ccd"/>
<rect x="272.5" y="31.032608695652172" width="7" height="38.96739130434783" style="fill:blue; stroke-width:2; stroke:#ccd"/>
<rect x="280.0" y="62.336956521739125" width="7" height="7.6630434782608745" style="fill:blue; stroke-width:2; stroke:#ccd"/>
<rect x="287.5" y="10.0" width="7" height="60.0" style="fill:blue; stroke-width:2; stroke:#ccd"/>
<rect x="295.0" y="13.913043478260867" width="7" height="56.08695652173913" style="fill:blue; stroke-width:2; stroke:#ccd"/>
<rect x="302.5" y="18.478260869565215" width="7" height="51.52173913043478" style="fill:blue; stroke-width:2; stroke:#ccd"/>
</g>
</g>
<g transform="translate(660 0)">
<rect x="0" y="0" width="320" height="80" fill="#ccd" stroke-width="0"/>
<defs>
<clipPath id="minichart-3">
<rect width="320" height="80"/>
</clipPath>
</defs>
<g clip-path="url(#minichart-3)">
<polyline fill="red" stroke="red" stroke-width="2" stroke-linejoin="round" stroke-linecap="round" points="10,70 10.0,70.0 25.789473684210527,68.70967741935485 41.578947368421055,67.09677419354838 57.368421052631575,69.03225806451613 73.15789473684211,59.03225806451613 88.94736842105263,59.354838709677416 104.73684210526315,67.74193548387098 120.52631578947368,48.064516129032256 136.31578947368422,67.41935483870968 152.10526315789474,38.38709677419355 167.89473684210526,52.25806451612903 183.6842105263158,53.54838709677419 199.4736842105263,32.25806451612903 215.26315789473682,36.12903225806451 231.05263157894737,53.87096774193549 246.8421052631579,51.612903225806456 262.63157894736844,46.12903225806452 278.4210526315789,10.0 294.2105263157895,16.451612903225808 310.0,54.193548387096776 310,70 10,70"/>
</g>
</g>
<g transform="translate(0 90)">
<rect x="0" y="0" width="494" height="24" fill="#ccd" stroke-width="0"/>
<defs>
<clipPath id="minichart-4">
<rect width="494" height="24"/>
</clipPath>
</defs>
<g clip-path="url(#minichart-4)">
<rect x="247.0" y="2" height="20" width="196.0" style="fill:green; stroke-width:2; stroke:#ccd"/>
<line x1="247.0" x2="247.0" y1="2" y2="22" stroke="black" stroke-width="4"/>
</g>
</g>
<g transform="translate(500 90)">
<rect x="0" y="0" width="484" height="24" fill="#ccd" stroke-width="0"/>
<defs>
<clipPath id="minichart-5">
<rect width="484" height="24"/>
</clipPath>
</defs>
<g clip-path="url(#minichart-5)">
<rect x="2" y="2" width="22" height="20" style="opacity:1.0; fill:red; stroke-width:2; stroke:#ccd"/>
<rect x="24" y="2" width="22" height="20" style="opacity:0.95; fill:red; stroke-width:2; stroke:#ccd"/>
<rect x="46" y="2" width="22" height="20" style="opacity:0.9; fill:red; stroke-width:2; stroke:#ccd"/>
<rect x="68" y="2" width="22" height="20" style="opacity:0.8500000000000001; fill:red; stroke-width:2; stroke:#ccd"/>
<rect x="90" y="2" width="22" height="20" style="opacity:0.8; fill:red; stroke-width:2; stroke:#ccd"/>
<rect x="112" y="2" width="22" height="20" style="opacity:0.75; fill:red; stroke-width:2; stroke:#ccd"/>
<rect x="134" y="2" width="22" height="20" style="opacity:0.7; fill:red; stroke-width:2; stroke:#ccd"/>
<rect x="156" y="2" width="22" height="20" style="opacity:0.65; fill:red; stroke-width:2; stroke:#ccd"/>
<rect x="178" y="2" width="22" height="20" style="opacity:0.6; fill:red; stroke-width:2; stroke:#ccd"/>
<rect x="200" y="2" width="22" height="20" style="opacity:0.55; fill:red; stroke-width:2; stroke:#ccd"/>
<rect x="222" y="2" width="22" height="20" style="opacity:1; fill:#eee; stroke-width:2; stroke:#ccd"/>
<rect x="244" y="2" width="22" height="20" style="opacity:0.55; fill:green; stroke-width:2; stroke:#ccd"/>
<rect x="266" y="2" width="22" height="20" style="opacity:0.6; fill:green; stroke-width:2; stroke:#ccd"/>
<rect x="288" y="2" width="22" height="20" style="opacity:0.65; fill:green; stroke-width:2; stroke:#ccd"/>
<rect x="310" y="2" width="22" height="20" style="opacity:0.7; fill:green; stroke-width:2; stroke:#ccd"/>
<rect x="332" y="2" width="22" height="20" style="opacity:0.75; fill:green; stroke-width:2; stroke:#ccd"/>
<rect x="354" y="2" width="22" height="20" style="opacity:0.8; fill:green; stroke-width:2; stroke:#ccd"/>
<rect x="376" y="2" width="22" height="20" style="opacity:0.8500000000000001; fill:green; stroke-width:2; stroke:#ccd"/>
<rect x="398" y="2" width="22" height="20" style="opacity:0.9; fill:green; stroke-width:2; stroke:#ccd"/>
<rect x="420" y="2" width="22" height="20" style="opacity:0.95; fill:green; stroke-width:2; stroke:#ccd"/>
<rect x="442" y="2" width="22" height="20" style="opacity:1.0; fill:green; stroke-width:2; stroke:#ccd"/>
</g>
</g>

</svg>