<?xml version="1.0" standalone="no"?>
<!DOCTYPE svg PUBLIC "-//W3C//DTD SVG 1.1//EN" "http://www.w3.org/Graphics/SVG/1.1/DTD/svg11.dtd">

<svg width="100%" height="100%" 
  xmlns="http://www.w3.org/2000/svg"
  xmlns:xlink="http://www.w3.org/1999/xlink">


<g transform="translate(0 0)">
<rect x="0" y="0" width="300" height="100" fill="#eee"/>
<polyline fill="none" stroke="green" stroke-width="2" stroke-linejoin="round" points="0.0,100.0 15.789473684210526,93.37748344370861 31.57894736842105,96.02649006622516 47.368421052631575,88.07947019867551 63.1578947368421,74.83443708609272 78.94736842105263,90.06622516556291 94.73684210526315,66.22516556291392 110.52631578947368,64.90066225165563 126.3157894736842,43.70860927152318 142.10526315789474,54.3046357615894 157.89473684210526,57.6158940397351 173.6842105263158,29.801324503311257 189.4736842105263,74.17218543046357 205.26315789473682,54.3046357615894 221.05263157894737,82.11920529801324 236.8421052631579,0.0 252.6315789473684,50.9933774834437 268.4210526315789,52.980132450331126 284.2105263157895,26.490066225165563 300.0,84.10596026490066"/>
</g>
<g transform="translate(310 0)">
<rect x="0" y="0" width="300" height="100" fill="#eee"/>
<rect x="0.0" y="100.0" width="7" height="0.0" style="fill:blue; stroke-width:2; stroke:#eee"/>
<rect x="7.5" y="97.9002624671916" width="7" height="2.0997375328084047" style="fill:blue; stroke-width:2; stroke:#eee"/>
<rect x="15.0" y="95.53805774278216" width="7" height="4.461942257217842" style="fill:blue; stroke-width:2; stroke:#eee"/>
<rect x="22.500000000000004" y="98.68766404199475" width="7" height="1.3123359580052494" style="fill:blue; stroke-width:2; stroke:#eee"/>
<rect x="30.0" y="91.33858267716536" width="7" height="8.661417322834637" style="fill:blue; stroke-width:2; stroke:#eee"/>
<rect x="37.5" y="98.4251968503937" width="7" height="1.5748031496062964" style="fill:blue; stroke-width:2; stroke:#eee"/>
<rect x="45.00000000000001" y="86.61417322834646" width="7" height="13.38582677165354" style="fill:blue; stroke-width:2; stroke:#eee"/>
<rect x="52.50000000000001" y="82.41469816272966" width="7" height="17.585301837270336" style="fill:blue; stroke-width:2; stroke:#eee"/>
<rect x="60.0" y="90.02624671916011" width="7" height="9.973753280839887" style="fill:blue; stroke-width:2; stroke:#eee"/>
<rect x="67.5" y="82.67716535433071" width="7" height="17.32283464566929" style="fill:blue; stroke-width:2; stroke:#eee"/>
<rect x="75.0" y="71.12860892388451" width="7" height="28.871391076115486" style="fill:blue; stroke-width:2; stroke:#eee"/>
<rect x="82.5" y="71.12860892388451" width="7" height="28.871391076115486" style="fill:blue; stroke-width:2; stroke:#eee"/>
<rect x="90.00000000000001" y="72.70341207349081" width="7" height="27.29658792650919" style="fill:blue; stroke-width:2; stroke:#eee"/>
<rect x="97.5" y="62.72965879265091" width="7" height="37.27034120734909" style="fill:blue; stroke-width:2; stroke:#eee"/>
<rect x="105.00000000000001" y="66.9291338582677" width="7" height="33.070866141732296" style="fill:blue; stroke-width:2; stroke:#eee"/>
<rect x="112.5" y="61.417322834645674" width="7" height="38.582677165354326" style="fill:blue; stroke-width:2; stroke:#eee"/>
<rect x="120.0" y="85.8267716535433" width="7" height="14.173228346456696" style="fill:blue; stroke-width:2; stroke:#eee"/>
<rect x="127.50000000000001" y="56.69291338582677" width="7" height="43.30708661417323" style="fill:blue; stroke-width:2; stroke:#eee"/>
<rect x="135.0" y="81.62729658792651" width="7" height="18.37270341207349" style="fill:blue; stroke-width:2; stroke:#eee"/>
<rect x="142.5" y="87.4015748031496" width="7" height="12.5984251968504" style="fill:blue; stroke-width:2; stroke:#eee"/>
<rect x="150.0" y="58.00524934383202" width="7" height="41.99475065616798" style="fill:blue; stroke-width:2; stroke:#eee"/>
<rect x="157.5" y="86.61417322834646" width="7" height="13.38582677165354" style="fill:blue; stroke-width:2; stroke:#eee"/>
<rect x="165.0" y="69.5538057742782" width="7" height="30.446194225721797" style="fill:blue; stroke-width:2; stroke:#eee"/>
<rect x="172.50000000000003" y="34.645669291338585" width="7" height="65.35433070866142" style="fill:blue; stroke-width:2; stroke:#eee"/>
<rect x="180.00000000000003" y="89.23884514435696" width="7" height="10.761154855643042" style="fill:blue; stroke-width:2; stroke:#eee"/>
<rect x="187.5" y="58.26771653543308" width="7" height="41.73228346456692" style="fill:blue; stroke-width:2; stroke:#eee"/>
<rect x="195.0" y="54.33070866141732" width="7" height="45.66929133858268" style="fill:blue; stroke-width:2; stroke:#eee"/>
<rect x="202.5" y="46.194225721784775" width="7" height="53.805774278215225" style="fill:blue; stroke-width:2; stroke:#eee"/>
<rect x="210.00000000000003" y="30.183727034120732" width="7" height="69.81627296587926" style="fill:blue; stroke-width:2; stroke:#eee"/>
<rect x="217.50000000000003" y="47.24409448818898" width="7" height="52.75590551181102" style="fill:blue; stroke-width:2; stroke:#eee"/>
<rect x="225.0" y="87.4015748031496" width="7" height="12.5984251968504" style="fill:blue; stroke-width:2; stroke:#eee"/>
<rect x="232.5" y="81.88976377952756" width="7" height="18.110236220472444" style="fill:blue; stroke-width:2; stroke:#eee"/>
<rect x="240.0" y="13.910761154855644" width="7" height="86.08923884514435" style="fill:blue; stroke-width:2; stroke:#eee"/>
<rect x="247.50000000000003" y="63.51706036745407" width="7" height="36.48293963254593" style="fill:blue; stroke-width:2; stroke:#eee"/>
<rect x="255.00000000000003" y="40.15748031496062" width="7" height="59.84251968503938" style="fill:blue; stroke-width:2; stroke:#eee"/>
<rect x="262.5" y="48.29396325459317" width="7" height="51.70603674540683" style="fill:blue; stroke-width:2; stroke:#eee"/>
<rect x="270.0" y="55.118110236220474" width="7" height="44.881889763779526" style="fill:blue; stroke-width:2; stroke:#eee"/>
<rect x="277.5" y="17.322834645669293" width="7" height="82.67716535433071" style="fill:blue; stroke-width:2; stroke:#eee"/>
<rect x="285.0" y="65.09186351706036" width="7" height="34.90813648293964" style="fill:blue; stroke-width:2; stroke:#eee"/>
<rect x="292.5" y="0.0" width="7" height="100.0" style="fill:blue; stroke-width:2; stroke:#eee"/>
</g>
<g transform="translate(620 0)">
<rect x="0" y="0" width="300" height="100" fill="#eee"/>
<polyline fill="red" stroke="red" stroke-width="2" stroke-linejoin="round" points="0,100 0.0,100.0 15.789473684210526,99.40476190476191 31.57894736842105,88.09523809523809 47.368421052631575,80.95238095238095 63.1578947368421,75.0 78.94736842105263,88.69047619047619 94.73684210526315,88.69047619047619 110.52631578947368,83.92857142857143 126.3157894736842,91.07142857142857 142.10526315789474,90.47619047619048 157.89473684210526,40.476190476190474 173.6842105263158,92.85714285714286 189.4736842105263,52.38095238095239 205.26315789473682,65.47619047619048 221.05263157894737,60.71428571428572 236.8421052631579,86.90476190476191 252.6315789473684,43.452380952380956 268.4210526315789,30.35714285714286 284.2105263157895,0.0 300.0,19.64285714285714 300,100"/>
</g>

</svg>